<?xml version="1.0" standalone="no"?>
<!DOCTYPE svg PUBLIC "-//W3C//DTD SVG 20010904//EN"
 "http://www.w3.org/TR/2001/REC-SVG-20010904/DTD/svg10.dtd">
<svg version="1.0" xmlns="http://www.w3.org/2000/svg"
 width="700.000000pt" height="700.000000pt" viewBox="0 0 700.000000 700.000000"
 preserveAspectRatio="xMidYMid meet">
<metadata>
Created by potrace 1.11, written by Peter Selinger 2001-2013
</metadata>
<g transform="translate(0.000000,700.000000) scale(0.100000,-0.100000)"
fill="#000000" stroke="none">
<path d="M803 6985 c-353 -64 -635 -305 -750 -640 -56 -164 -53 -19 -53 -2836
0 -1814 3 -2621 11 -2676 59 -426 403 -767 830 -823 60 -8 845 -10 2714 -8
l2630 3 78 23 c215 60 392 173 518 329 72 90 121 177 159 282 63 173 60 14 60
2858 0 1805 -3 2615 -11 2669 -50 358 -302 664 -642 780 -167 57 -15 54 -2856
53 -2100 -1 -2630 -3 -2688 -14z m3499 -2017 c13 -35 181 -483 374 -996 274
-733 351 -928 358 -912 5 11 174 458 376 993 l366 972 295 0 294 0 3 -1462 2
-1463 -195 0 -195 0 -2 1276 -3 1277 -375 -997 -374 -996 -199 2 -200 3 -371
987 -371 987 -3 -1269 -2 -1270 -195 0 -195 0 0 1458 c0 802 3 1462 7 1465 3
4 136 7 294 7 l287 0 24 -62z m-2432 -1165 l645 -1216 3 1216 2 1217 190 0
190 0 0 -1460 0 -1460 -266 2 -267 3 -646 1220 -646 1219 -3 -1222 -2 -1222
-190 0 -190 0 0 1460 0 1460 268 0 267 0 645 -1217z"/>
</g>
</svg>
