<svg xmlns="http://www.w3.org/2000/svg" width="620" height="620" viewBox="0 0 620 620">
  <g id="hero_image" transform="translate(-909 -216)">
    <rect id="Rectangle_4" data-name="Rectangle 4" width="155" height="155" rx="36" transform="translate(1219 216)" fill="#3c6e71"/>
    <path id="Path_2" data-name="Path 2" d="M36,0h83a36,36,0,0,1,36,36v83a36,36,0,0,1-36,36H36A36,36,0,0,1,0,119V36A36,36,0,0,1,36,0Z" transform="translate(1219 526)" fill="#3c6e71"/>
    <rect id="Rectangle_6" data-name="Rectangle 6" width="155" height="155" rx="36" transform="translate(1374 371)" fill="#284b63" opacity="0.999"/>
    <rect id="Rectangle_5" data-name="Rectangle 5" width="155" height="155" rx="36" transform="translate(1065 372)" fill="#fff"/>
    <rect id="Rectangle_9" data-name="Rectangle 9" width="155" height="155" rx="36" transform="translate(1065 681)" fill="#fff"/>
    <rect id="Rectangle_7" data-name="Rectangle 7" width="155" height="155" rx="36" transform="translate(909 526)" fill="#284b63" opacity="0.999"/>
    <circle id="Ellipse_2" data-name="Ellipse 2" cx="77" cy="77" r="77" transform="translate(1221 372)" fill="#353535"/>
    <path id="Path_1" data-name="Path 1" d="M77,0A77,77,0,1,1,0,77,77,77,0,0,1,77,0Z" transform="translate(1065 527)" fill="#f2af29"/>
  </g>
</svg>
