<svg xmlns="http://www.w3.org/2000/svg" width="106.577" height="106.581" viewBox="0 0 106.577 106.581">
  <path id="Icon_simple-gatsby" data-name="Icon simple-gatsby" d="M53.3.011A53,53,0,0,0,.011,53.3a53.009,53.009,0,0,0,53.286,53.3A53.006,53.006,0,0,0,106.587,53.3,53,53,0,0,0,53.3.011ZM11.594,53.763,52.839,95.008A41.336,41.336,0,0,1,11.594,53.763ZM62.569,94.08,12.522,44.033a41.882,41.882,0,0,1,74.6-15.289l-6.02,5.092A34.021,34.021,0,0,0,52.839,19.009a33.568,33.568,0,0,0-31.977,22.7l43.56,43.565a33.006,33.006,0,0,0,21.318-24.1H67.666V53.3H95.008A41.774,41.774,0,0,1,62.569,94.08Z" transform="translate(-0.01 -0.01)"/>
</svg>
