<svg xmlns="http://www.w3.org/2000/svg" width="121" height="105.881" viewBox="0 0 121 105.881">
  <path id="Icon_awesome-react" data-name="Icon awesome-react" d="M98.832,36.563Q96.918,35.925,95,35.357c.213-.874.4-1.749.591-2.623,2.907-14.085.993-25.405-5.459-29.139C83.92.026,73.782,3.737,63.525,12.67c-1.016.874-2.009,1.8-2.954,2.718-.638-.614-1.3-1.229-1.962-1.82C47.856,4.02,37.08,0,30.628,3.76c-6.192,3.592-8.035,14.251-5.436,27.579.26,1.323.544,2.623.874,3.947-1.512.425-3,.9-4.4,1.394C9.051,41.053,0,47.954,0,55.091c0,7.373,9.642,14.771,22.758,19.261,1.063.354,2.127.709,3.214,1.016-.354,1.418-.662,2.812-.945,4.254-2.481,13.116-.544,23.515,5.648,27.083,6.381,3.687,17.11-.095,27.556-9.24.827-.733,1.654-1.489,2.481-2.292,1.04,1.016,2.127,1.985,3.214,2.93,10.115,8.7,20.112,12.218,26.28,8.65,6.381-3.687,8.461-14.865,5.766-28.478q-.319-1.56-.709-3.19c.756-.213,1.489-.449,2.221-.685C111.121,69.885,121,62.583,121,55.091c0-7.161-9.311-14.109-22.168-18.528ZM66.857,16.5C75.649,8.841,83.849,5.84,87.583,7.991c3.994,2.292,5.53,11.556,3.025,23.727-.165.8-.331,1.583-.544,2.363a120.983,120.983,0,0,0-15.9-2.505A119.4,119.4,0,0,0,64.092,19.027c.922-.874,1.82-1.7,2.765-2.529ZM39.514,67.356c1.205,2.056,2.434,4.112,3.734,6.121A107.012,107.012,0,0,1,32.282,71.7a110.4,110.4,0,0,1,3.852-10.517c1.087,2.08,2.2,4.136,3.379,6.168Zm-7.161-28.43c3.4-.756,7.019-1.371,10.777-1.843-1.253,1.962-2.481,3.97-3.639,6-1.158,2.009-2.292,4.065-3.356,6.145-1.489-3.521-2.741-6.972-3.781-10.3Zm6.475,16.283c1.56-3.261,3.261-6.452,5.057-9.595s3.734-6.192,5.766-9.193c3.545-.26,7.161-.4,10.847-.4s7.326.142,10.847.4q3.013,4.467,5.743,9.146t5.128,9.548q-2.375,4.892-5.1,9.642c-1.8,3.143-3.71,6.192-5.719,9.217-3.521.26-7.184.378-10.895.378s-7.3-.118-10.777-.331q-3.084-4.5-5.814-9.217c-1.82-3.143-3.5-6.334-5.081-9.595Zm42.681,12.1c1.205-2.08,2.34-4.183,3.45-6.31a109.706,109.706,0,0,1,3.994,10.469,103.8,103.8,0,0,1-11.107,1.891C79.123,71.374,80.328,69.341,81.51,67.309Zm3.4-18.079c-1.111-2.08-2.245-4.159-3.427-6.192q-1.737-3.013-3.616-5.955a108.753,108.753,0,0,1,10.847,1.891A104.589,104.589,0,0,1,84.913,49.23ZM60.547,22.643a103.776,103.776,0,0,1,7,8.461c-4.679-.213-9.382-.213-14.062,0C55.8,28.055,58.184,25.219,60.547,22.643ZM33.133,8.156c3.97-2.316,12.785.993,22.073,9.217.591.52,1.182,1.087,1.8,1.654A120.067,120.067,0,0,0,46.864,31.576a124.576,124.576,0,0,0-15.881,2.458c-.307-1.205-.567-2.434-.827-3.663C27.934,18.933,29.4,10.307,33.133,8.156Zm-5.79,62.3c-.993-.284-1.962-.591-2.93-.922-5.034-1.583-10.753-4.088-14.889-7.373a10.6,10.6,0,0,1-4.443-7.066c0-4.325,7.468-9.855,18.245-13.612,1.347-.473,2.718-.9,4.088-1.3a125.666,125.666,0,0,0,5.79,15.03A129.183,129.183,0,0,0,27.343,70.452ZM54.9,93.612a43.255,43.255,0,0,1-13.329,8.342,10.46,10.46,0,0,1-8.342.307c-3.758-2.174-5.317-10.517-3.19-21.742.26-1.323.544-2.647.874-3.947a118.227,118.227,0,0,0,16.047,2.316,124.718,124.718,0,0,0,10.209,12.62C56.412,92.242,55.655,92.951,54.9,93.612Zm5.79-5.743c-2.411-2.6-4.821-5.483-7.161-8.579,2.269.095,4.608.142,6.972.142,2.434,0,4.821-.047,7.184-.165a101.918,101.918,0,0,1-7,8.6Zm30.888,7.09a10.5,10.5,0,0,1-3.9,7.4c-3.758,2.174-11.769-.662-20.419-8.082-.993-.851-1.985-1.772-3-2.718a116.91,116.91,0,0,0,9.973-12.667,116.5,116.5,0,0,0,16.118-2.481c.236.969.449,1.938.638,2.883a43.081,43.081,0,0,1,.591,15.669Zm4.3-25.405c-.662.213-1.323.425-2.009.614a120.054,120.054,0,0,0-6.026-15.078,119.454,119.454,0,0,0,5.79-14.865c1.229.354,2.411.733,3.545,1.111,11.013,3.781,18.741,9.406,18.741,13.707,0,4.632-8.248,10.611-20.041,14.511ZM60.5,66.009A10.824,10.824,0,1,0,49.676,55.185,10.822,10.822,0,0,0,60.5,66.009Z" transform="translate(0 -2.251)"/>
</svg>
