<svg xmlns="http://www.w3.org/2000/svg" width="191.703" height="71.496" viewBox="0 0 191.703 71.496">
  <path id="Icon_simple-rails" data-name="Icon simple-rails" d="M166.862,74.238v9.3H182.7c3.244,0,8.813-2.517,9.007-9.553v-3.6a9.212,9.212,0,0,0-9.007-9.553H174.8V56.518h15.64V47.17H175.433a9.49,9.49,0,0,0-9.055,9.707v3.236a9.312,9.312,0,0,0,9.055,9.553c10.895.051-2.615,0,7.457,0v4.52l-16.028.051Zm-84.835-2.26S90.5,71.208,90.5,59.6,80.235,46.913,80.235,46.913h-18.5V83.534h9.3V74.7l8.038,8.834H92.825l-10.8-11.556Zm-3.583-7.5H71.035V56.107h7.457s2.082.822,2.082,4.16-2.131,4.212-2.131,4.212ZM113.453,47.17h-9.442C97.28,47.17,95,53.642,95,56.723V83.534h9.442v-6.42h8.861v6.42h9.152V56.723a9.16,9.16,0,0,0-9.007-9.553Zm-.145,19.569H104.4V57.853s0-2,2.954-2H110.6c2.615,0,2.663,2,2.663,2v8.886h.048ZM126.769,47.17h9.83V83.534h-9.83ZM150.4,74.135V47.17h-9.781V83.534h23v-9.4ZM3.39,83.534H41.643s-7.312-35.388,16.9-49.718c5.278-2.722,22.08-12.892,49.584,8.68.872-.77,1.695-1.387,1.695-1.387S84.642,14.453,56.605,17.432C42.515,18.767,25.179,32.378,15.011,50.355S3.39,83.534,3.39,83.534Zm0,0H41.643s-7.312-35.388,16.9-49.718c5.278-2.722,22.08-12.892,49.584,8.68.872-.77,1.695-1.387,1.695-1.387S84.642,14.453,56.605,17.432C42.515,18.767,25.179,32.378,15.011,50.355S3.39,83.534,3.39,83.534Zm0,0H41.643s-7.312-35.388,16.9-49.718c5.278-2.722,22.08-12.892,49.584,8.68.872-.77,1.695-1.387,1.695-1.387S84.642,14.453,56.605,17.432C42.466,18.767,25.131,32.378,14.962,50.355S3.39,83.534,3.39,83.534Zm79.7-63.227.194-3.441a22.853,22.853,0,0,0-4.7-1.8l-.194,3.39c1.6.565,3.147,1.181,4.7,1.849ZM78.492,31.2,78.3,34.432a25.532,25.532,0,0,1,4.794.616l.194-3.184A32.434,32.434,0,0,0,78.492,31.2ZM60.576,15.172h.484l-.968-3.133a36.454,36.454,0,0,0-4.649.308l.92,3.03a38.558,38.558,0,0,1,4.213-.205Zm2.324,18.9,1.114,3.544a29.642,29.642,0,0,1,4.213-1.8l-1.065-3.39A33.86,33.86,0,0,0,62.9,34.073ZM40.917,20.565l-2.179-3.544c-1.211.668-2.47,1.387-3.777,2.209l2.227,3.6C38.447,22,39.658,21.232,40.917,20.565Zm9.927,23.113,2.324,3.7a28.214,28.214,0,0,1,2.857-3.647l-2.179-3.493A27.852,27.852,0,0,0,50.843,43.678ZM43.822,60.216,47.744,63.5a43.277,43.277,0,0,1,1.017-6.009l-3.486-2.928a51.2,51.2,0,0,0-1.453,5.65Zm-21.209-24.4-3.438-3.184c-1.259,1.284-2.47,2.568-3.583,3.852l3.729,3.39a51.3,51.3,0,0,1,3.293-4.058ZM7.99,58.778,2.421,56.621C1.5,58.829.484,61.4,0,62.784l5.569,2.157C6.2,63.2,7.215,60.678,7.99,58.778ZM43.1,73.262a55.253,55.253,0,0,0,.581,6.472l5.811,2.209c-.436-2-.872-4.263-1.162-6.677Z" transform="translate(0 -12.039)"/>
</svg>
