<svg xmlns="http://www.w3.org/2000/svg" width="107" height="104.327" viewBox="0 0 107 104.327">
  <path id="Icon_awesome-github" data-name="Icon awesome-github" d="M35.789,84.566c0,.431-.5.777-1.122.777-.712.065-1.208-.28-1.208-.777,0-.431.5-.777,1.122-.777C35.228,83.725,35.789,84.07,35.789,84.566ZM29.08,83.6c-.151.431.28.928.928,1.057a1.012,1.012,0,0,0,1.338-.431c.129-.431-.28-.928-.928-1.122A1.107,1.107,0,0,0,29.08,83.6Zm9.535-.367c-.626.151-1.057.561-.992,1.057.065.431.626.712,1.273.561.626-.151,1.057-.561.992-.992C39.823,83.444,39.241,83.164,38.615,83.229ZM52.81.563C22.889.563,0,23.278,0,53.2a54.085,54.085,0,0,0,36.566,51.6c2.761.5,3.732-1.208,3.732-2.61,0-1.337-.065-8.715-.065-13.246,0,0-15.1,3.236-18.272-6.429,0,0-2.459-6.278-6-7.9,0,0-4.94-3.387.345-3.322a11.387,11.387,0,0,1,8.327,5.566c4.724,8.327,12.642,5.932,15.726,4.509a11.99,11.99,0,0,1,3.452-7.27c-12.059-1.338-24.226-3.085-24.226-23.838,0-5.932,1.64-8.909,5.091-12.706-.561-1.4-2.395-7.184.561-14.648,4.509-1.4,14.885,5.825,14.885,5.825a50.963,50.963,0,0,1,27.1,0S77.6,21.488,82.105,22.912c2.955,7.486,1.122,13.246.561,14.648,3.452,3.818,5.566,6.8,5.566,12.706,0,20.818-12.706,22.479-24.765,23.838,1.985,1.7,3.667,4.94,3.667,10.01,0,7.27-.065,16.266-.065,18.035,0,1.4.992,3.106,3.732,2.61C92.374,97.6,107,77.124,107,53.2,107,23.278,82.731.563,52.81.563Zm-31.841,74.4c-.28.216-.216.712.151,1.122.345.345.841.5,1.122.216.28-.216.216-.712-.151-1.122C21.745,74.837,21.249,74.686,20.969,74.966Zm-2.33-1.747c-.151.28.065.626.5.841a.642.642,0,0,0,.928-.151c.151-.28-.065-.626-.5-.841C19.135,72.939,18.79,73,18.639,73.219Zm6.99,7.68c-.345.28-.216.928.28,1.338.5.5,1.122.561,1.4.216.28-.28.151-.928-.28-1.338C26.556,80.618,25.909,80.554,25.628,80.9Zm-2.459-3.171c-.345.216-.345.777,0,1.273s.928.712,1.208.5a.984.984,0,0,0,0-1.338C24.075,77.663,23.514,77.447,23.169,77.728Z" transform="translate(0 -0.563)"/>
</svg>
