<svg xmlns="http://www.w3.org/2000/svg" width="106.6" height="106.6" viewBox="0 0 106.6 106.6">
  <path id="Icon_simple-javascript" data-name="Icon simple-javascript" d="M0,0H106.6V106.6H0ZM97.868,81.176c-.777-4.864-3.944-8.95-13.338-12.761-3.269-1.532-6.9-2.6-7.982-5.063a5.245,5.245,0,0,1-.2-3.131c.666-2.869,4.064-3.731,6.729-2.931a7.226,7.226,0,0,1,4.335,4c4.593-3,4.593-3,7.8-5a18.332,18.332,0,0,0-2.6-3.465c-2.8-3.131-6.525-4.73-12.588-4.593l-3.131.4a14.318,14.318,0,0,0-7.6,4.464c-5.064,5.734-3.6,15.728,2.527,19.859,6.063,4.531,14.928,5.525,16.061,9.794,1.066,5.2-3.864,6.862-8.732,6.263-3.6-.8-5.6-2.6-7.8-5.934l-8.128,4.668c.933,2.132,2,3.06,3.6,4.926,7.729,7.8,27.05,7.4,30.519-4.459a15.033,15.033,0,0,0,.329-7.329l.2.3ZM57.968,49H47.983c0,8.608-.04,17.163-.04,25.784,0,5.472.28,10.5-.613,12.041-1.466,3.06-5.241,2.669-6.956,2.132a8.57,8.57,0,0,1-3.687-3.8,3.811,3.811,0,0,0-.564-.871l-8.106,5A15.71,15.71,0,0,0,33.9,96.02a19.547,19.547,0,0,0,14.244,1.8,12.476,12.476,0,0,0,8.044-6.267c2.265-4.131,1.786-9.194,1.763-14.862.053-9.123,0-18.251,0-27.445L57.968,49Z"/>
</svg>
