<svg xmlns="http://www.w3.org/2000/svg" width="103.913" height="103.913" viewBox="0 0 103.913 103.913">
  <path id="Icon_awesome-dice-three" data-name="Icon awesome-dice-three" d="M89.069,2.25H14.845A14.844,14.844,0,0,0,0,17.095V91.319a14.844,14.844,0,0,0,14.845,14.845H89.069a14.844,14.844,0,0,0,14.845-14.845V17.095A14.844,14.844,0,0,0,89.069,2.25ZM29.69,39.362a7.422,7.422,0,1,1,7.422-7.422A7.423,7.423,0,0,1,29.69,39.362ZM51.957,61.629a7.422,7.422,0,1,1,7.422-7.422A7.423,7.423,0,0,1,51.957,61.629ZM74.224,83.9a7.422,7.422,0,1,1,7.422-7.422A7.423,7.423,0,0,1,74.224,83.9Z" transform="translate(0 -2.25)"/>
</svg>
