<svg xmlns="http://www.w3.org/2000/svg" width="92.1" height="103.88" viewBox="0 0 92.1 103.88">
  <path id="Icon_awesome-node-js" data-name="Icon awesome-node-js" d="M46.079,104.165a8.074,8.074,0,0,1-4-1.072L29.361,95.569c-1.9-1.072-.969-1.443-.35-1.649A25.053,25.053,0,0,0,34.762,91.3a.93.93,0,0,1,.948.082l9.771,5.792a1.193,1.193,0,0,0,1.175,0L84.728,75.2a1.221,1.221,0,0,0,.577-1.031V30.225a1.228,1.228,0,0,0-.6-1.051L46.656,7.221a1.194,1.194,0,0,0-1.175,0L7.449,29.195a1.2,1.2,0,0,0-.6,1.051V74.173a1.138,1.138,0,0,0,.6,1.01L17.88,81.2c5.669,2.824,9.132-.495,9.132-3.855V33.977a1.091,1.091,0,0,1,1.113-1.092h4.823a1.1,1.1,0,0,1,1.113,1.092V77.368c0,7.544-4.123,11.873-11.275,11.873-2.206,0-3.937,0-8.761-2.391L4.048,81.1a8.015,8.015,0,0,1-4-6.947V30.225a8.041,8.041,0,0,1,4-6.947L42.08,1.305a8.347,8.347,0,0,1,8,0L88.15,23.3a8.015,8.015,0,0,1,4,6.947V74.173a8.066,8.066,0,0,1-4,6.947L50.077,103.093a8.017,8.017,0,0,1-4,1.072ZM76.813,60.857c0-8.225-5.566-10.41-17.253-11.956-11.832-1.567-13.028-2.371-13.028-5.133,0-2.288,1.01-5.339,9.771-5.339,7.812,0,10.7,1.69,11.894,6.967a1.1,1.1,0,0,0,1.072.866h4.947a1.076,1.076,0,0,0,.8-.35,1.147,1.147,0,0,0,.289-.845c-.763-9.09-6.8-13.316-19.005-13.316-10.863,0-17.336,4.576-17.336,12.265,0,8.328,6.452,10.636,16.862,11.667,12.471,1.216,13.44,3.051,13.44,5.5,0,4.246-3.422,6.06-11.44,6.06-10.08,0-12.285-2.535-13.028-7.544a1.091,1.091,0,0,0-1.092-.928H38.781a1.086,1.086,0,0,0-1.092,1.092c0,6.411,3.484,14.058,20.16,14.058,12.038-.021,18.964-4.782,18.964-13.069Z" transform="translate(-0.049 -0.285)"/>
</svg>
